<svg width="24" height="24" viewBox="0 0 24 24" fill="none" xmlns="http://www.w3.org/2000/svg">
<path fill-rule="evenodd" clip-rule="evenodd" d="M16.577 22.3681H7.753C4.312 22.3681 2 19.9531 2 16.3591V8.04513C2 4.45113 4.312 2.03613 7.753 2.03613H11.492C11.906 2.03613 12.242 2.37213 12.242 2.78613C12.242 3.20013 11.906 3.53613 11.492 3.53613H7.753C5.169 3.53613 3.5 5.30613 3.5 8.04513V16.3591C3.5 19.0981 5.169 20.8681 7.753 20.8681H16.577C19.161 20.8681 20.831 19.0981 20.831 16.3591V12.3311C20.831 11.9171 21.167 11.5811 21.581 11.5811C21.995 11.5811 22.331 11.9171 22.331 12.3311V16.3591C22.331 19.9531 20.018 22.3681 16.577 22.3681Z" fill="#44742C" stroke="#44742C" stroke-width="0.4"/>
<path fill-rule="evenodd" clip-rule="evenodd" d="M8.86774 15.428H11.8447C12.2247 15.428 12.5807 15.281 12.8497 15.012L20.3587 7.503C20.6667 7.195 20.8367 6.785 20.8367 6.349C20.8367 5.912 20.6667 5.501 20.3587 5.193L19.1417 3.976C18.5047 3.341 17.4687 3.341 16.8307 3.976L9.35774 11.449C9.09874 11.708 8.95174 12.052 8.94274 12.417L8.86774 15.428ZM11.8447 16.928H8.09874C7.89674 16.928 7.70274 16.846 7.56174 16.701C7.42074 16.557 7.34374 16.362 7.34874 16.159L7.44274 12.38C7.46174 11.628 7.76474 10.921 8.29674 10.388H8.29774L15.7707 2.915C16.9927 1.695 18.9797 1.695 20.2017 2.915L21.4187 4.132C22.0117 4.724 22.3377 5.511 22.3367 6.349C22.3367 7.187 22.0107 7.973 21.4187 8.564L13.9097 16.073C13.3587 16.624 12.6247 16.928 11.8447 16.928V16.928Z" fill="#44742C"/>
<path d="M8.86774 15.428L8.71779 15.4243L8.71396 15.578H8.86774V15.428ZM12.8497 15.012L12.7437 14.9059L12.8497 15.012ZM20.3587 7.503L20.4648 7.60907L20.3587 7.503ZM20.3587 5.193L20.4648 5.08693L20.4648 5.08693L20.3587 5.193ZM19.1417 3.976L19.2478 3.86993L19.2476 3.86977L19.1417 3.976ZM16.8307 3.976L16.7249 3.86968L16.7247 3.86993L16.8307 3.976ZM9.35774 11.449L9.46381 11.5551L9.46381 11.5551L9.35774 11.449ZM8.94274 12.417L9.09269 12.4207L9.09269 12.4207L8.94274 12.417ZM7.56174 16.701L7.66928 16.5964L7.66892 16.5961L7.56174 16.701ZM7.34874 16.159L7.19879 16.1553L7.19879 16.1553L7.34874 16.159ZM7.44274 12.38L7.29279 12.3762L7.29279 12.3763L7.44274 12.38ZM8.29674 10.388V10.238H8.23453L8.19057 10.282L8.29674 10.388ZM8.29774 10.388V10.538H8.35987L8.40381 10.4941L8.29774 10.388ZM15.7707 2.915L15.6648 2.80885L15.6647 2.80893L15.7707 2.915ZM20.2017 2.915L20.3078 2.80893L20.3077 2.80885L20.2017 2.915ZM21.4187 4.132L21.3127 4.23807L21.3128 4.23816L21.4187 4.132ZM22.3367 6.349L22.1867 6.34882V6.349H22.3367ZM21.4187 8.564L21.3128 8.45784L21.3127 8.45793L21.4187 8.564ZM13.9097 16.073L13.8037 15.9669L13.8037 15.9669L13.9097 16.073ZM8.86774 15.578H11.8447V15.278H8.86774V15.578ZM11.8447 15.578C12.2644 15.578 12.6586 15.4153 12.9558 15.1181L12.7437 14.9059C12.5029 15.1467 12.1851 15.278 11.8447 15.278V15.578ZM12.9558 15.1181L20.4648 7.60907L20.2527 7.39693L12.7437 14.9059L12.9558 15.1181ZM20.4648 7.60907C20.8009 7.27295 20.9867 6.8248 20.9867 6.349H20.6867C20.6867 6.7452 20.5326 7.11705 20.2527 7.39693L20.4648 7.60907ZM20.9867 6.349C20.9867 5.87234 20.801 5.42315 20.4648 5.08693L20.2527 5.29907C20.5325 5.57885 20.6867 5.95166 20.6867 6.349H20.9867ZM20.4648 5.08693L19.2478 3.86993L19.0357 4.08207L20.2527 5.29907L20.4648 5.08693ZM19.2476 3.86977C18.5521 3.17637 17.4214 3.17648 16.7249 3.86968L16.9366 4.08232C17.5161 3.50552 18.4574 3.50563 19.0358 4.08223L19.2476 3.86977ZM16.7247 3.86993L9.25167 11.3429L9.46381 11.5551L16.9368 4.08207L16.7247 3.86993ZM9.25167 11.3429C8.9654 11.6292 8.80273 12.0099 8.79279 12.4133L9.09269 12.4207C9.10075 12.0941 9.23208 11.7868 9.46381 11.5551L9.25167 11.3429ZM8.79279 12.4133L8.71779 15.4243L9.01769 15.4317L9.09269 12.4207L8.79279 12.4133ZM11.8447 16.778H8.09874V17.078H11.8447V16.778ZM8.09874 16.778C7.9373 16.778 7.78207 16.7124 7.66928 16.5964L7.4542 16.8056C7.62341 16.9796 7.85618 17.078 8.09874 17.078V16.778ZM7.66892 16.5961C7.5563 16.481 7.49469 16.3252 7.49869 16.1627L7.19879 16.1553C7.19279 16.3988 7.28518 16.633 7.45456 16.8059L7.66892 16.5961ZM7.49869 16.1627L7.59269 12.3837L7.29279 12.3763L7.19879 16.1553L7.49869 16.1627ZM7.59269 12.3838C7.61072 11.6702 7.89803 10.9998 8.40291 10.494L8.19057 10.282C7.63145 10.8422 7.31276 11.5858 7.29279 12.3762L7.59269 12.3838ZM8.29674 10.538H8.29774V10.238H8.29674V10.538ZM8.40381 10.4941L15.8768 3.02107L15.6647 2.80893L8.19167 10.2819L8.40381 10.4941ZM15.8767 3.02115C17.0402 1.85962 18.9323 1.85962 20.0958 3.02115L20.3077 2.80885C19.0272 1.53038 16.9453 1.53038 15.6648 2.80885L15.8767 3.02115ZM20.0957 3.02107L21.3127 4.23807L21.5248 4.02593L20.3078 2.80893L20.0957 3.02107ZM21.3128 4.23816C21.8775 4.80199 22.1877 5.55073 22.1867 6.34882L22.4867 6.34918C22.4878 5.47127 22.1459 4.64601 21.5247 4.02584L21.3128 4.23816ZM22.1867 6.349C22.1867 7.14721 21.8766 7.89501 21.3128 8.45784L21.5247 8.67016C22.1449 8.05099 22.4867 7.22679 22.4867 6.349H22.1867ZM21.3127 8.45793L13.8037 15.9669L14.0158 16.1791L21.5248 8.67007L21.3127 8.45793ZM13.8037 15.9669C13.2808 16.4898 12.585 16.778 11.8447 16.778V17.078C12.6645 17.078 13.4367 16.7582 14.0158 16.1791L13.8037 15.9669Z" fill="#44742C"/>
<path fill-rule="evenodd" clip-rule="evenodd" d="M19.731 9.91636C19.539 9.91636 19.347 9.84336 19.201 9.69636L14.635 5.13036C14.342 4.83736 14.342 4.36236 14.635 4.06936C14.928 3.77636 15.402 3.77636 15.695 4.06936L20.261 8.63636C20.554 8.92936 20.554 9.40336 20.261 9.69636C20.115 9.84336 19.923 9.91636 19.731 9.91636" fill="#44742C"/>
</svg>
